<svg width="152" height="152" viewBox="0 0 152 152" fill="none" xmlns="http://www.w3.org/2000/svg">
<path fill-rule="evenodd" clip-rule="evenodd" d="M132.741 68.6307C125.723 68.6307 119.825 63.8306 118.153 57.3343H100.89C97.2085 57.3343 94.0668 59.9958 93.4618 63.6271L92.8424 67.3414C92.255 70.8679 90.4708 73.9372 87.9479 76.1617C90.4708 78.3862 92.255 81.4555 92.8424 84.982L93.4618 88.6962C94.0668 92.3275 97.2085 94.9891 100.89 94.9891H103.091C104.763 88.4928 110.661 83.6927 117.679 83.6927C125.997 83.6927 132.741 90.4361 132.741 98.7546C132.741 107.073 125.997 113.817 117.679 113.817C110.661 113.817 104.763 109.016 103.091 102.52H100.89C93.5271 102.52 87.2438 97.197 86.0331 89.9343L85.4137 86.2201C84.8087 82.5887 81.6671 79.9272 77.9857 79.9272H72.0186C70.3468 86.4235 64.4494 91.2236 57.4311 91.2236C50.4129 91.2236 44.5158 86.4235 42.8437 79.9272H34.3637C32.6917 86.4235 26.7945 91.2236 19.7763 91.2236C11.4578 91.2236 4.71436 84.4802 4.71436 76.1617C4.71436 67.8432 11.4578 61.0998 19.7763 61.0998C26.7945 61.0998 32.6917 65.8999 34.3637 72.3962H42.8437C44.5158 65.8999 50.4129 61.0998 57.4311 61.0998C64.4494 61.0998 70.3468 65.8999 72.0186 72.3962H77.9857C81.6671 72.3962 84.8087 69.7346 85.4137 66.1033L86.0331 62.3891C87.2438 55.1264 93.5271 49.8033 100.89 49.8033H118.153C119.825 43.307 125.723 38.5068 132.741 38.5068C141.059 38.5068 147.803 45.2503 147.803 53.5688C147.803 61.8872 141.059 68.6307 132.741 68.6307ZM132.741 61.0998C136.9 61.0998 140.272 57.728 140.272 53.5688C140.272 49.4095 136.9 46.0378 132.741 46.0378C128.582 46.0378 125.21 49.4095 125.21 53.5688C125.21 57.728 128.582 61.0998 132.741 61.0998ZM19.7763 83.6927C23.9355 83.6927 27.3073 80.3209 27.3073 76.1617C27.3073 72.0025 23.9355 68.6307 19.7763 68.6307C15.6171 68.6307 12.2453 72.0025 12.2453 76.1617C12.2453 80.3209 15.6171 83.6927 19.7763 83.6927ZM64.9621 76.1617C64.9621 80.3209 61.5904 83.6927 57.4311 83.6927C53.2719 83.6927 49.9002 80.3209 49.9002 76.1617C49.9002 72.0025 53.2719 68.6307 57.4311 68.6307C61.5904 68.6307 64.9621 72.0025 64.9621 76.1617ZM125.21 98.7546C125.21 102.914 121.838 106.286 117.679 106.286C113.52 106.286 110.148 102.914 110.148 98.7546C110.148 94.5954 113.52 91.2236 117.679 91.2236C121.838 91.2236 125.21 94.5954 125.21 98.7546Z" fill="#EA4B71"/>
</svg>
